<svg width="44" height="44" viewBox="0 0 44 44" fill="none" xmlns="http://www.w3.org/2000/svg">
<rect width="44" height="44" rx="22" fill="white"/>
<path d="M18 22C19.0609 22 20.0783 21.5786 20.8284 20.8284C21.5786 20.0783 22 19.0609 22 18C22 16.9391 21.5786 15.9217 20.8284 15.1716C20.0783 14.4214 19.0609 14 18 14C16.9391 14 15.9217 14.4214 15.1716 15.1716C14.4214 15.9217 14 16.9391 14 18C14 19.0609 14.4214 20.0783 15.1716 20.8284C15.9217 21.5786 16.9391 22 18 22ZM27 22C27.7956 22 28.5587 21.6839 29.1213 21.1213C29.6839 20.5587 30 19.7956 30 19C30 18.2044 29.6839 17.4413 29.1213 16.8787C28.5587 16.3161 27.7956 16 27 16C26.2044 16 25.4413 16.3161 24.8787 16.8787C24.3161 17.4413 24 18.2044 24 19C24 19.7956 24.3161 20.5587 24.8787 21.1213C25.4413 21.6839 26.2044 22 27 22ZM14.5 24C13.12 24 12 25.12 12 26.5C12 26.5 12 31 18 31C22.756 31 23.742 28.172 23.946 27C24 26.694 24 26.5 24 26.5C24 25.12 22.88 24 21.5 24H14.5ZM25.992 27.2C25.988 27.28 25.98 27.3747 25.968 27.484C25.8576 28.3086 25.5712 29.0999 25.128 29.804C25.658 29.926 26.276 30 26.998 30C31.998 30 31.998 26.5 31.998 26.5C31.998 25.12 30.878 24 29.498 24H25.24C25.72 24.716 25.998 25.574 25.998 26.5V27L25.992 27.2Z" fill="url(#paint0_linear_433_819)"/>
<defs>
<linearGradient id="paint0_linear_433_819" x1="12" y1="14" x2="34.443" y2="19.5509" gradientUnits="userSpaceOnUse">
<stop stop-color="#13B359"/>
<stop offset="1" stop-color="#037E39"/>
</linearGradient>
</defs>
</svg>
