<svg width="45" height="45" viewBox="0 0 45 45" fill="none" xmlns="http://www.w3.org/2000/svg">
<rect width="45" height="45" rx="22.5" fill="white"/>
<path d="M28 15.5H29V16.5C29 16.7652 29.1054 17.0196 29.2929 17.2071C29.4804 17.3947 29.7348 17.5 30 17.5C30.2652 17.5 30.5196 17.3947 30.7071 17.2071C30.8946 17.0196 31 16.7652 31 16.5V15.5H32C32.2652 15.5 32.5196 15.3947 32.7071 15.2071C32.8946 15.0196 33 14.7652 33 14.5C33 14.2348 32.8946 13.9805 32.7071 13.7929C32.5196 13.6054 32.2652 13.5 32 13.5H31V12.5C31 12.2348 30.8946 11.9805 30.7071 11.7929C30.5196 11.6054 30.2652 11.5 30 11.5C29.7348 11.5 29.4804 11.6054 29.2929 11.7929C29.1054 11.9805 29 12.2348 29 12.5V13.5H28C27.7348 13.5 27.4804 13.6054 27.2929 13.7929C27.1054 13.9805 27 14.2348 27 14.5C27 14.7652 27.1054 15.0196 27.2929 15.2071C27.4804 15.3947 27.7348 15.5 28 15.5ZM21 19.5V25.5C21 26.2957 21.3161 27.0587 21.8787 27.6213C22.4413 28.184 23.2044 28.5 24 28.5H25C25.7957 28.5 26.5587 28.184 27.1213 27.6213C27.6839 27.0587 28 26.2957 28 25.5V19.5C28 18.7044 27.6839 17.9413 27.1213 17.3787C26.5587 16.8161 25.7957 16.5 25 16.5H24C23.2044 16.5 22.4413 16.8161 21.8787 17.3787C21.3161 17.9413 21 18.7044 21 19.5ZM26 19.5V25.5C26 25.7652 25.8946 26.0196 25.7071 26.2071C25.5196 26.3947 25.2652 26.5 25 26.5H24C23.7348 26.5 23.4804 26.3947 23.2929 26.2071C23.1054 26.0196 23 25.7652 23 25.5V19.5C23 19.2348 23.1054 18.9805 23.2929 18.7929C23.4804 18.6054 23.7348 18.5 24 18.5H25C25.2652 18.5 25.5196 18.6054 25.7071 18.7929C25.8946 18.9805 26 19.2348 26 19.5ZM31.6 19.5C31.4713 19.5263 31.349 19.5776 31.2402 19.6511C31.1313 19.7246 31.038 19.8189 30.9656 19.9284C30.8931 20.038 30.843 20.1608 30.818 20.2898C30.793 20.4187 30.7937 20.5513 30.82 20.68C31.2104 22.5762 30.979 24.5478 30.1601 26.3021C29.3412 28.0563 27.9785 29.4997 26.2741 30.4181C24.5698 31.3364 22.6148 31.6807 20.6993 31.3999C18.7838 31.119 17.0099 30.228 15.641 28.8591C14.272 27.4901 13.381 25.7162 13.1001 23.8007C12.8193 21.8852 13.1636 19.9302 14.0819 18.2259C15.0003 16.5216 16.4437 15.1588 18.198 14.3399C19.9522 13.521 21.9238 13.2896 23.82 13.68C24.0852 13.7331 24.3606 13.6786 24.5857 13.5286C24.8107 13.3785 24.967 13.1452 25.02 12.88C25.073 12.6148 25.0186 12.3394 24.8685 12.1143C24.7185 11.8893 24.4852 11.7331 24.22 11.68C23.4882 11.5437 22.7442 11.4834 22 11.5C19.8244 11.5 17.6977 12.1452 15.8887 13.3539C14.0798 14.5626 12.6699 16.2805 11.8373 18.2905C11.0048 20.3005 10.7869 22.5122 11.2114 24.646C11.6358 26.7798 12.6835 28.7398 14.2218 30.2782C15.7602 31.8166 17.7202 32.8642 19.854 33.2887C21.9878 33.7131 24.1995 33.4953 26.2095 32.6627C28.2195 31.8301 29.9375 30.4202 31.1462 28.6113C32.3549 26.8024 33 24.6756 33 22.5C33.0021 21.7611 32.9284 21.0239 32.78 20.3C32.7561 20.1695 32.7064 20.0451 32.6338 19.934C32.5613 19.8229 32.4674 19.7273 32.3576 19.6528C32.2478 19.5784 32.1242 19.5265 31.9942 19.5003C31.8641 19.474 31.7301 19.474 31.6 19.5ZM17 17.5V27.5C17 27.7652 17.1054 28.0196 17.2929 28.2071C17.4804 28.3947 17.7348 28.5 18 28.5C18.2652 28.5 18.5196 28.3947 18.7071 28.2071C18.8946 28.0196 19 27.7652 19 27.5V17.5C19 17.2348 18.8946 16.9805 18.7071 16.7929C18.5196 16.6054 18.2652 16.5 18 16.5C17.7348 16.5 17.4804 16.6054 17.2929 16.7929C17.1054 16.9805 17 17.2348 17 17.5Z" fill="url(#paint0_linear_433_815)"/>
<defs>
<linearGradient id="paint0_linear_433_815" x1="11" y1="11.4973" x2="36.0912" y2="16.7722" gradientUnits="userSpaceOnUse">
<stop stop-color="#13B359"/>
<stop offset="1" stop-color="#037E39"/>
</linearGradient>
</defs>
</svg>
