<svg width="422" height="707" viewBox="0 0 422 707" fill="none" xmlns="http://www.w3.org/2000/svg">
<circle opacity="0.5" cx="397.5" cy="353.5" r="397.5" fill="#007acc"/>
<path opacity="0.3" d="M700.071 296.065L639.066 235.072V148.831H639.09V107.91H511.904L450.923 46.9291L450.935 46.917L422.006 18L421.994 18.0121L332.084 107.922H204.922V235.072L118.451 321.543L115.012 324.982L115 324.994L143.929 353.923L143.941 353.911L204.922 414.892V542.078H245.831V542.054H332.084L393.089 603.059L393.077 603.071L422.006 632L450.935 603.071L450.911 603.047L511.904 542.054H598.169V542.078H639.078V501.157H639.054V414.892L700.047 353.899L700.071 353.923L729 324.994L700.071 296.065ZM128.766 324.982L143.941 309.806L159.104 324.97L159.092 324.982L159.117 325.006L143.953 340.169L128.766 324.982ZM204.922 401.15L150.818 347.046L165.981 331.883L204.922 370.812V401.15ZM204.922 357.07L172.858 325.006L172.87 324.994L172.846 324.97L204.922 292.894V357.07ZM204.922 279.152L165.969 318.093L150.806 302.93L204.922 248.813V279.152ZM598.205 251.948V269.651H555.462L585.691 239.422L598.205 251.948ZM477.325 444.538V435.96L513.714 472.349H567.855L539.059 501.145H508.66L521.296 488.496L477.325 444.538ZM335.486 501.157H304.929L276.133 472.361H330.432L366.821 435.972V444.55L322.85 488.521L335.486 501.157ZM258.467 424.126L302.438 380.155H311.004L274.614 416.544V470.842L245.819 442.047V411.49L258.467 424.126ZM245.94 397.857V380.155H288.684L258.455 410.384L245.94 397.857ZM366.821 205.268V213.846L330.432 177.457H276.291L304.941 148.807H335.34L322.862 161.285L366.821 205.268ZM508.818 148.807H539.047L567.685 177.444H513.702L477.313 213.834V205.256L521.284 161.285L508.818 148.807ZM552.801 148.807H598.169V194.175L552.801 148.807ZM456.22 423.421L460.935 418.707H467.593V426.24L467.605 426.252V434.83L461.542 428.767V428.755L456.22 423.421ZM387.245 408.987H376.553V380.155H399.188L415.19 396.156L394.802 416.544L387.245 408.987ZM387.925 423.421L382.604 428.743V428.755L376.541 434.818V426.24L376.553 426.228V418.695H383.211L387.925 423.421ZM422.079 403.033L442.467 423.421L422.079 443.809L401.691 423.421L422.079 403.033ZM392.324 432.789L394.814 430.298L422.079 457.562L449.344 430.298L451.822 432.777V489.93L422.079 519.673L392.336 489.93V432.789H392.324ZM449.344 416.544L428.956 396.156L444.957 380.155H467.593V408.987H456.901L449.344 416.544ZM467.593 370.423L440.936 370.435L422.079 389.292L422.067 389.28L422.055 389.292L403.198 370.435H376.553V370.423H376.541V343.766L357.684 324.909L357.696 324.897L357.684 324.885L376.541 306.028V279.371H376.553V279.359H403.21L422.067 260.502L422.079 260.514L422.091 260.502L440.948 279.359H467.605V279.371H467.617V306.028L486.474 324.885L486.462 324.897L486.474 324.909L467.617 343.766L467.593 370.423ZM366.821 279.383V302.018L350.819 318.02L330.432 297.632L337.989 290.075V279.383H366.821ZM337.989 269.651V240.819H366.821V269.651H337.989ZM343.942 324.897L323.555 345.284L303.167 324.897L323.555 304.509L343.942 324.897ZM318.233 364.372L323.555 359.05L328.269 363.765V370.423H320.736L320.724 370.435H312.158L318.221 364.372H318.233ZM324.758 380.155H328.269V418.707H366.821V422.218L326.41 462.629H284.334V420.566L324.758 380.155ZM337.989 408.987V380.155H366.821V408.987H337.989ZM337.989 370.423V359.731L330.432 352.173L350.819 331.786L366.821 347.787V370.423H337.989ZM387.925 226.385L383.211 231.099H376.553V223.566L376.541 223.554V214.976L382.604 221.039V221.051L387.925 226.385ZM456.901 240.819H467.593V269.651H444.957L428.956 253.649L449.344 233.261L456.901 240.819ZM456.22 226.385L461.542 221.063V221.051L467.605 214.988V223.566L467.593 223.578V231.111H460.935L456.22 226.385ZM422.079 246.76L401.691 226.372L422.079 205.985L442.467 226.372L422.079 246.76ZM451.822 217.017L449.344 219.495L422.079 192.231L394.814 219.495L392.324 217.005V159.863L422.067 130.12L451.81 159.863V217.017H451.822ZM394.802 233.261L415.19 253.649L399.188 269.651H376.553V240.819H387.245L394.802 233.261ZM506.157 279.383V290.075L513.714 297.632L493.327 318.02L477.325 302.018V279.383H506.157ZM477.325 269.651V240.819H506.157V269.651H477.325ZM477.325 380.155H506.157V408.987H477.325V380.155ZM477.325 370.423V347.787L493.327 331.786L513.714 352.173L506.157 359.731V370.423H477.325ZM500.216 324.897L520.603 304.509L540.991 324.897L520.603 345.284L500.216 324.897ZM525.913 285.434L520.591 290.755L515.877 286.041V279.383H523.41L523.422 279.371H532L525.937 285.434H525.913ZM519.388 269.651H515.877V231.099H477.325V227.587L517.736 187.177H559.799V229.24L519.388 269.651ZM477.325 191.514V148.77H495.028L507.542 161.285L477.325 191.514ZM467.605 139.05V201.234L461.542 207.297V155.83L423.343 117.63H463.802L485.21 139.038H467.605V139.05ZM389.906 107.91L421.982 75.834L422.006 75.8583L422.018 75.8461L454.082 107.91H389.906ZM420.803 117.63L382.604 155.83V207.297L376.541 201.234V139.05H358.777L380.186 117.642H420.803V117.63ZM366.821 148.77V191.514L336.592 161.285L349.118 148.77H366.821ZM284.334 187.164H326.398L366.809 227.575V231.087H328.257V269.639H324.745L284.334 229.24V187.164ZM312.158 279.371H320.724L320.736 279.383H328.269V286.041L323.555 290.755L318.233 285.434H318.221L312.158 279.371ZM314.187 295.154L316.666 297.632L289.401 324.897L316.666 352.161L314.175 354.652H257.021L227.278 324.909L257.021 295.166H314.187V295.154ZM366.821 458.292V501.035H349.118L336.592 488.509L366.821 458.292ZM376.541 510.755V448.572L382.604 442.509V493.976L420.961 532.334H380.186L358.607 510.767H376.541V510.755ZM454.082 542.054L421.994 574.13L389.906 542.041H454.082V542.054ZM423.185 532.334L461.542 493.976V442.509L467.605 448.572V510.767H485.368L463.79 532.334H423.185ZM477.325 501.035V458.292L507.554 488.521L495.028 501.047H477.325V501.035ZM559.811 462.641H517.736L477.325 422.23V418.719H515.877V380.167H519.388L559.799 420.578V462.641H559.811ZM523.422 370.435L515.877 370.423V363.765L520.591 359.05L525.913 364.372H525.925L531.988 370.435H523.422ZM529.959 354.652L527.468 352.161L554.733 324.897L527.468 297.632L529.947 295.154H587.1L616.843 324.897L587.1 354.64H529.959V354.652ZM569.531 233.261V179.279L598.169 207.929V238.158L585.691 225.68L541.72 269.651H533.142L569.531 233.261ZM598.169 117.63V139.087H543.081L521.624 117.63H598.169ZM529.327 139.087H499.098L499.061 139.05H498.964L477.556 117.642H507.894L529.327 139.087ZM498.162 107.91H467.824L428.883 68.9814L444.046 53.8182L498.162 107.91ZM421.994 31.7538L437.181 46.9413L422.018 62.1045L421.994 62.0802L421.982 62.0923L406.819 46.9291L421.994 31.7538ZM399.942 53.806L415.105 68.9692L376.164 107.922H345.826L399.942 53.806ZM336.106 117.63H366.444L344.999 139.087H314.661L336.106 117.63ZM245.843 117.63H322.364L300.907 139.087H245.843V117.63ZM245.819 148.831H245.843V148.807H291.187L245.819 194.175V148.831ZM245.819 207.929L274.614 179.133V233.274L311.004 269.663H302.426L258.455 225.692L245.819 238.316V207.929ZM288.684 269.651H245.94V251.948L258.467 239.422L288.684 269.651ZM214.642 117.63H236.111V139.087H236.099V139.111H214.642V117.63ZM214.642 148.831H236.099V203.895L214.642 225.352V148.831ZM214.642 239.093L236.099 217.649V247.987L214.642 269.444V239.093ZM214.642 283.174L236.208 261.595V279.359H298.404L304.467 285.421H253L214.642 323.779V283.174ZM214.642 380.532L236.099 401.976V432.315L214.642 410.858V380.532ZM214.642 424.612L236.099 446.069V501.157H214.642V424.612ZM236.123 532.334H214.642V510.877H236.123V532.334ZM236.22 388.356L214.654 366.778V326.002L253.012 364.36H304.479L298.416 370.423H236.22V388.356ZM245.819 501.157V455.789L291.187 501.157H245.843H245.819ZM245.843 532.334V510.877H300.907L322.364 532.334H245.843ZM314.661 510.877H344.999L366.456 532.334H336.118L314.661 510.877ZM345.826 542.054H376.164L415.117 581.019L399.954 596.182L345.826 542.054ZM421.994 618.21L406.831 603.047L422.006 587.871L437.169 603.034L421.994 618.21ZM444.046 596.157L428.883 580.994L467.836 542.041H498.174L444.046 596.157ZM507.882 532.334H477.544L498.988 510.877H529.327L507.882 532.334ZM598.169 532.334H521.624L543.081 510.877H598.169V532.334ZM598.169 501.157H552.801L598.169 455.789V501.157ZM598.169 442.035L569.531 470.672V416.532L533.142 380.143H541.72L585.691 424.114L598.169 411.648V442.035ZM598.205 397.857L585.691 410.384L555.462 380.155H598.205V397.857ZM629.346 532.334H607.889V510.877H629.346V532.334ZM629.346 501.157H607.889V446.069L629.346 424.612V501.157ZM629.346 410.87L607.889 432.315V401.976L629.346 380.519V410.87ZM629.346 366.79L607.937 388.198V370.435H545.754L539.691 364.372H591.158L629.358 326.172V366.79H629.346ZM629.346 323.633L591.146 285.434H539.679L545.742 279.371H607.925V261.765L629.334 283.174V323.633H629.346ZM629.346 269.432L607.937 248.024V247.926L607.901 247.89V217.661L629.358 239.118V269.432H629.346ZM629.346 225.352L607.889 203.895V148.831H629.346V225.352ZM629.346 139.111H607.889V117.63H629.346V139.111ZM639.066 248.813L693.194 302.942L678.031 318.105L639.066 279.152V248.813ZM639.066 292.894L671.142 324.982L639.054 357.07V292.894H639.066ZM639.066 401.15V370.812L678.019 331.859L693.182 347.022L639.066 401.15ZM700.047 340.157L684.883 324.994L700.059 309.819L715.222 324.982L700.047 340.157Z" fill="white"/>
</svg>
