<svg width="261" height="261" viewBox="0 0 261 261" fill="none" xmlns="http://www.w3.org/2000/svg">
<path d="M240.469 109.969C236.843 106.343 232.019 104.344 226.89 104.344H218.306V94.1329L211.085 86.9122L217.154 80.8433C220.78 77.2174 222.779 72.3933 222.779 67.2644V38.2213H193.746C188.617 38.2213 183.793 40.2202 180.167 43.8461L174.093 49.9202L166.872 42.6994H156.661V34.11C156.661 28.9811 154.662 24.1569 151.036 20.531L130.5 0L109.969 20.531C106.343 24.1569 104.344 28.9811 104.344 34.11V42.6943H94.1329L86.907 49.9202L80.8381 43.8461C77.2122 40.2202 72.3881 38.2213 67.2592 38.2213H38.2213V67.254C38.2213 72.3829 40.2202 77.2071 43.8461 80.8329L49.9202 86.907L42.6994 94.1278V104.339H34.11C28.9811 104.339 24.1569 106.338 20.531 109.964L0 130.5L20.531 151.031C24.1569 154.657 28.9811 156.656 34.11 156.656H42.6943V166.867L49.915 174.088L43.8461 180.157C40.2202 183.783 38.2213 188.607 38.2213 193.736V222.768H67.254C72.3829 222.768 77.2071 220.769 80.8329 217.144L86.9019 211.075L94.1226 218.295H104.334V226.88C104.334 232.009 106.333 236.833 109.959 240.459L130.5 261L151.031 240.469C154.657 236.843 156.656 232.019 156.656 226.89V218.306H166.867L174.088 211.085L180.157 217.154C183.783 220.78 188.607 222.779 193.736 222.779H222.768V193.746C222.768 188.617 220.769 183.793 217.144 180.167L211.075 174.098L218.295 166.877V156.666H226.88C232.009 156.666 236.833 154.667 240.459 151.041L261 130.5L240.469 109.969ZM214.169 95.8426V104.344H207.81V98.4767L203.663 94.3292L208.162 89.8304L214.169 95.8426ZM225.661 118.915C227.486 119.051 229.201 119.837 230.495 121.131L239.865 130.5L230.495 139.869C229.198 141.162 227.482 141.948 225.656 142.085C225.459 142.101 225.268 142.116 225.072 142.116H207.805V118.889H225.072C225.273 118.884 225.465 118.899 225.661 118.915ZM142.116 218.301V225.077C142.116 225.273 142.101 225.47 142.085 225.661C141.949 227.486 141.163 229.201 139.869 230.495L130.5 239.865L121.131 230.495C119.839 229.2 119.053 227.485 118.915 225.661C118.899 225.465 118.884 225.268 118.884 225.072V207.805H142.111V218.301H142.116ZM108.476 207.81H114.752V214.169H108.476V207.81ZM53.1638 194.583C53.1638 192.532 53.9592 190.611 55.4106 189.159L67.6208 176.949L84.0456 193.374L71.8354 205.584C70.3892 207.03 68.4627 207.831 66.4121 207.831H53.1638V194.583ZM55.7618 174.093L60.2606 169.594L64.6973 174.031L60.1986 178.53L57.9776 176.309L55.7618 174.093ZM57.3217 156.656H67.3573L60.2606 163.753L57.3217 160.814V156.656ZM35.3392 118.915C35.5355 118.899 35.7266 118.884 35.9229 118.884H53.1896V142.111H35.9229C35.7266 142.111 35.5303 142.096 35.3392 142.08C33.5108 141.941 31.7908 141.15 30.5048 139.864L21.1354 130.5L30.5048 121.131C30.825 120.81 31.1762 120.516 31.5481 120.263C32.6534 119.493 33.9653 119.023 35.3392 118.915ZM46.8315 108.476H53.1896V114.752H46.8315V108.476ZM57.9828 84.6912L60.2038 82.4703L64.7025 86.969L60.2657 91.4058L55.767 86.907L57.9828 84.6912ZM152.524 53.1896H146.248V46.8315H152.524V53.1896ZM203.678 104.344H193.643L200.739 97.2475L203.678 100.186V104.344ZM156.656 187.801V166.748H162.611V184.883L171.108 193.379L166.671 197.816L156.656 187.801ZM134.715 171.702L130.5 175.916L124.736 170.152C124.323 169.742 123.996 169.254 123.774 168.717C123.551 168.18 123.437 167.604 123.439 167.022V153.397L130.5 146.331L137.561 153.391V167.017C137.561 168.2 137.101 169.31 136.264 170.147L134.715 171.702ZM118.884 193.374L124.39 187.868L130.5 181.758L142.116 193.374V203.678H118.889V193.374H118.884ZM77.8321 166.743H94.2569V183.168L86.969 190.456L70.5442 174.031L77.8321 166.743ZM67.6259 142.116H57.3165V118.889H67.6259L79.2421 130.5L67.6259 142.116ZM77.8321 94.2569L70.5442 86.969L86.969 70.5442L94.2569 77.8321V94.2569H77.8321ZM98.3889 98.3889H106.545C107.727 98.3889 108.838 98.8486 109.675 99.6853L117.004 107.015L118.667 108.673L119.318 109.323V119.307H109.323L99.6853 109.669C99.2727 109.26 98.9456 108.772 98.7231 108.234C98.5005 107.697 98.3869 107.121 98.3889 106.539V104.344V98.3889ZM130.5 85.0838L134.715 89.2984L136.264 90.848C136.677 91.2578 137.004 91.7456 137.227 92.2829C137.449 92.8202 137.563 93.3964 137.561 93.978V107.603L130.5 114.669L123.439 107.609V93.9831C123.439 92.8004 123.899 91.6899 124.736 90.8531L125.898 89.691L130.5 85.0838ZM118.884 57.3217H142.111V67.6259L130.5 79.2421L118.884 67.6259V57.3217ZM167.022 119.307H157.524L164.238 112.593C165.39 111.441 166.17 110.026 166.526 108.476H183.669L171.547 120.599C170.19 119.751 168.622 119.304 167.022 119.307ZM141.693 119.307V109.323L142.788 108.228L144.001 107.015L151.331 99.6853C151.74 99.2727 152.228 98.9456 152.766 98.7231C153.303 98.5005 153.879 98.3869 154.461 98.3889H162.611V106.545C162.611 107.727 162.151 108.838 161.315 109.675L151.677 119.307H141.693ZM151.677 141.693L161.315 151.331C161.727 151.74 162.054 152.228 162.277 152.766C162.5 153.303 162.613 153.879 162.611 154.461V162.616H154.461C153.879 162.618 153.303 162.505 152.766 162.282C152.228 162.06 151.74 161.732 151.331 161.32L144.001 153.991L142.788 152.777L141.693 151.682V141.698H151.677V141.693ZM157.524 141.693H167.022C168.649 141.693 170.204 141.243 171.547 140.401L183.669 152.524H166.526C166.164 150.964 165.371 149.538 164.238 148.407L157.524 141.693ZM145.262 176.407L140.401 171.547C141.243 170.204 141.693 168.644 141.693 167.022V157.524L148.407 164.238C149.559 165.39 150.974 166.17 152.524 166.526V183.669L145.262 176.407ZM113.455 123.439H119.307V125.862L117.593 127.577L113.455 123.439ZM123.439 113.455L127.577 117.593L125.862 119.307H123.439V113.455ZM140.401 89.4534L145.262 84.5931L152.524 77.331V94.4738C150.979 94.8302 149.559 95.6101 148.407 96.7619L141.693 103.476V93.978C141.693 92.3561 141.243 90.7963 140.401 89.4534ZM137.561 119.307H135.138L133.423 117.593L137.561 113.455V119.307ZM127.577 123.439L130.5 120.516L133.423 123.439H137.561V127.577L140.484 130.5L137.561 133.423V137.561H133.423L130.5 140.484L127.577 137.561H123.439V133.423L120.516 130.5L123.439 127.577V123.439H127.577ZM117.593 133.423L119.307 135.138V137.561H113.455L117.593 133.423ZM123.439 141.693H125.862L127.577 143.407L123.439 147.545V141.693ZM135.138 141.693H137.561V147.545L133.423 143.407L135.138 141.693ZM141.693 137.561V135.138L143.407 133.423L147.545 137.561H141.693ZM141.693 125.862V123.439H147.545L143.407 127.577L141.693 125.862ZM187.801 104.344H166.748V98.3838H184.888L193.384 89.8873L197.821 94.324L187.801 104.344ZM183.168 94.2569H166.743V77.8321L174.031 70.5442L190.456 86.969L183.168 94.2569ZM162.611 76.1173V94.2517H156.656V73.199L166.676 63.1788L171.113 67.6156L162.611 76.1173ZM119.307 93.978V103.476L112.593 96.7619C111.464 95.6261 110.037 94.8329 108.476 94.4738V77.331L120.599 89.4534C119.757 90.7963 119.307 92.3561 119.307 93.978ZM96.7619 112.593L103.476 119.307H93.9831C92.3562 119.307 90.8015 119.757 89.4586 120.599L77.3362 108.476H94.479C94.8302 110.021 95.6153 111.441 96.7619 112.593ZM90.848 124.736C91.2578 124.323 91.7456 123.996 92.2829 123.774C92.8202 123.551 93.3964 123.437 93.978 123.439H107.609L114.669 130.5L107.609 137.561H93.9831C92.8004 137.561 91.6899 137.101 90.848 136.259L90.755 136.166L85.0838 130.5L89.2984 126.285L90.848 124.736ZM89.4534 140.401C90.7963 141.243 92.3561 141.693 93.978 141.693H103.476L96.7619 148.407C95.6261 149.536 94.8329 150.963 94.4738 152.524H77.331L89.4534 140.401ZM98.3889 154.461C98.3889 153.278 98.8486 152.167 99.6853 151.331L109.323 141.693H119.307V151.677L118.657 152.327L116.993 153.985L109.664 161.315C109.254 161.727 108.767 162.054 108.229 162.277C107.692 162.5 107.116 162.613 106.534 162.611H98.3786V154.461H98.3889ZM97.7846 185.487L98.3889 184.883V166.748H104.349V187.801L94.3292 197.821L89.8924 193.384L97.7846 185.487ZM108.476 166.526C110.021 166.17 111.441 165.39 112.593 164.238L119.307 157.524V167.022C119.307 168.649 119.757 170.204 120.599 171.547L108.476 183.669V166.526ZM172.74 189.17L166.743 183.173V166.748H183.168L190.456 174.036L174.031 190.461L172.74 189.17ZM184.883 162.611H166.748V156.651H187.801L197.821 166.671L193.384 171.108L184.883 162.611ZM170.147 136.264C169.737 136.677 169.249 137.004 168.712 137.227C168.175 137.449 167.598 137.563 167.017 137.561H153.386L146.331 130.5L153.391 123.439H167.022C168.2 123.439 169.31 123.899 170.142 124.725L175.916 130.5L170.147 136.264ZM193.374 142.116L181.758 130.5L193.374 118.884H203.684V142.111H193.374V142.116ZM191.659 114.752L178.834 127.577L174.62 123.362L189.511 108.476H203.678V114.752H191.659ZM205.238 86.907L200.745 91.4006L196.308 86.9639L200.807 82.4651L203.028 84.6861L205.238 86.907ZM207.836 66.4173C207.836 68.2406 207.18 70.007 205.982 71.4016C205.853 71.5514 205.729 71.7011 205.589 71.8406L197.878 79.552L193.379 84.0508L176.954 67.6259L184.371 60.2089L189.159 55.4209C190.606 53.9747 192.532 53.1741 194.583 53.1741H207.831V66.4173H207.836ZM178.53 60.2038L174.031 64.7025L169.594 60.2657L174.093 55.767L176.314 57.988L178.53 60.2038ZM156.656 67.3573V57.3217H160.814L163.753 60.2606L156.656 67.3573ZM152.524 71.4894L137.633 86.375L133.418 82.1604L146.243 69.3356V57.3165H152.519V71.4894H152.524ZM142.111 35.8712C142.111 35.9074 142.111 35.9384 142.116 35.9745V53.1896H118.889V35.9745L118.894 35.8661C118.899 35.6905 118.91 35.5097 118.92 35.3341C119.059 33.5056 119.85 31.7857 121.136 30.4996L130.5 21.1354L139.869 30.5048C141.156 31.7908 141.946 33.5108 142.085 35.3392C142.096 35.5148 142.106 35.6956 142.111 35.8712ZM114.752 53.1896H108.476V46.8315H114.752V53.1896ZM114.752 57.3217V69.3407L127.577 82.1655L123.362 86.3802L108.476 71.4945V57.3268H114.752V57.3217ZM104.344 67.3573L97.2475 60.2606L100.186 57.3217H104.344V67.3573ZM104.344 73.199V94.2517H98.3838V76.1173L89.8873 67.6208L94.324 63.184L104.344 73.199ZM86.969 64.6973L82.4703 60.1986L86.907 55.7618L91.4058 60.2606L86.969 64.6973ZM71.8354 55.4106L84.0456 67.6208L67.6208 84.0456L61.6655 78.0903L55.4158 71.8406C55.2763 71.7011 55.1472 71.5514 55.0232 71.4067C53.8301 70.0122 53.169 68.2406 53.169 66.4225V53.1741H66.4173C66.6756 53.1741 66.9286 53.1845 67.1766 53.2103C68.9378 53.3756 70.57 54.1452 71.8354 55.4106ZM67.6208 89.8873L75.5129 97.7794L76.1173 98.3838H94.2517V104.344H73.199L63.1788 94.324L67.6208 89.8873ZM67.3573 104.344H57.3217V100.186L60.2606 97.2475L67.3573 104.344ZM71.4894 108.476L86.375 123.362L82.1604 127.577L69.3356 114.752H57.3165V108.476H71.4894ZM46.8315 146.248H53.1896V152.524H46.8315V146.248ZM57.3217 146.248H69.3407L82.1655 133.423L86.3802 137.638L71.4945 152.524H57.3268V146.248H57.3217ZM73.199 156.656H94.2517V162.616H76.1173L67.6208 171.113L63.184 166.676L73.199 156.656ZM82.4703 200.796L86.969 196.298L91.4058 200.734L86.907 205.233L84.6861 203.012L82.4703 200.796ZM104.344 193.643V203.678H100.186L97.2475 200.739L104.344 193.643ZM108.476 189.511L123.362 174.625L127.577 178.84L115.356 191.06L114.752 191.664V203.684H108.476V189.511ZM146.248 207.81H152.524V214.169H146.248V207.81ZM146.248 203.678V191.659L133.423 178.834L137.638 174.62L152.529 189.505V203.673H146.248V203.678ZM156.656 193.643L158.753 195.74L163.753 200.739L160.814 203.678H156.656V193.643ZM174.093 205.238L169.594 200.739L174.031 196.303L178.53 200.801L176.309 203.022L174.093 205.238ZM184.371 200.796L176.954 193.379L193.379 176.954L205.589 189.165C207.036 190.611 207.836 192.537 207.836 194.588V207.836H194.588C192.537 207.836 190.616 207.041 189.165 205.589L184.371 200.796ZM200.796 178.53L196.298 174.031L200.734 169.594L205.228 174.088L203.007 176.309L200.796 178.53ZM193.643 156.656H203.678V160.814L200.739 163.753L193.643 156.656ZM189.511 152.524L174.62 137.638L178.834 133.423L184.516 139.105L191.659 146.248H203.678V152.524H189.511ZM207.81 146.248H214.169V152.524H207.81V146.248ZM214.169 114.752H207.81V108.476H214.169V114.752ZM183.085 46.7695C185.931 43.9235 189.717 42.3534 193.746 42.3534H218.647V67.254C218.647 71.2828 217.076 75.0636 214.231 77.9147L208.162 83.9836L205.941 81.7626L203.72 79.5417L208.508 74.7537C208.73 74.5316 208.921 74.3095 209.117 74.0874C210.956 71.9439 211.963 69.2168 211.963 66.4121V49.0318H194.583C193.033 49.0278 191.498 49.3312 190.066 49.9243C188.634 50.5174 187.334 51.3885 186.241 52.4872L181.453 57.2752L179.232 55.0542L177.011 52.8332L183.085 46.7695ZM165.157 46.8315L171.17 52.8436L166.676 57.3423L162.528 53.1948H156.661V46.8315H165.157ZM108.476 34.11C108.476 30.0812 110.046 26.3004 112.892 23.4493L130.5 5.84683L148.108 23.4545C150.954 26.3004 152.524 30.0864 152.524 34.1151V42.6994H146.248V35.9229C146.248 35.8712 146.248 35.8247 146.243 35.7731C146.238 35.52 146.222 35.2721 146.207 35.019C145.994 32.2101 144.783 29.5702 142.793 27.5762L130.5 15.2885L118.212 27.5762C116.223 29.5707 115.012 32.2104 114.798 35.019C114.778 35.2721 114.762 35.5252 114.762 35.7679V35.7938L114.757 35.9229H114.762L114.757 42.6994H108.481V34.11H108.476ZM95.8426 46.8315H104.344V53.1896H98.4767L94.3292 57.3372L89.8304 52.8384L95.8426 46.8315ZM42.3534 67.2592V42.3534H67.254C71.2828 42.3534 75.0636 43.9235 77.9147 46.7695L83.9836 52.8384L79.5469 57.2752L74.7589 52.4872C72.5327 50.2559 69.568 49.0318 66.4121 49.0318H49.0318V66.4121C49.0318 69.2219 50.0441 71.9439 51.8829 74.0874C52.074 74.3095 52.2651 74.5316 52.4923 74.7537L57.2803 79.5417L55.0594 81.7626L52.8384 83.9836L46.7643 77.9095C43.9235 75.0687 42.3534 71.2828 42.3534 67.2592ZM46.8315 95.8426L52.8436 89.8304L57.3423 94.3292L53.1948 98.4767V104.344H46.8315V95.8426ZM34.11 152.524C30.0812 152.524 26.3004 150.954 23.4493 148.108L5.84683 130.5L23.4545 112.892C26.3004 110.046 30.0864 108.476 34.1151 108.476H42.6994V114.752H35.9229C35.6026 114.752 35.2979 114.772 35.019 114.793C32.2041 115.01 29.5647 116.224 27.5813 118.207L15.2885 130.5L27.5762 142.793C29.5595 144.776 32.2041 145.99 35.0138 146.207H35.0242L35.2618 146.222L35.458 146.238C35.6078 146.248 35.7576 146.253 35.9177 146.253H42.6943V152.529H34.11V152.524ZM46.8315 156.656H53.1896V162.523L57.3372 166.671L52.8384 171.17L46.8315 165.157V156.656ZM77.9147 214.231C75.0688 217.076 71.2828 218.647 67.254 218.647H42.3534V193.746C42.3534 189.717 43.9235 185.931 46.7695 183.085L52.8384 177.011L55.0594 179.232L57.2803 181.453L52.4923 186.241C50.2662 188.472 49.0369 191.432 49.0369 194.588V211.968H66.4173C67.6001 211.968 68.7571 211.798 69.8572 211.462C71.6908 210.904 73.3695 209.902 74.764 208.513L79.552 203.725L81.773 205.946L83.9939 208.167L77.9147 214.231ZM95.8426 214.169L89.8304 208.156L94.3292 203.658L98.4767 207.805H104.344V214.163H95.8426V214.169ZM152.524 226.89C152.524 230.919 150.954 234.7 148.108 237.551L130.5 255.153L112.892 237.546C110.046 234.7 108.476 230.914 108.476 226.885V218.301H114.752V225.077C114.752 225.392 114.772 225.687 114.793 225.981C115.01 228.796 116.224 231.435 118.207 233.424L130.5 245.711L142.788 233.424C144.771 231.44 145.985 228.796 146.202 225.986C146.222 225.707 146.243 225.403 146.243 225.082V218.306H152.519V226.89H152.524ZM165.157 214.169H156.656V207.81H162.523L166.671 203.663L171.17 208.162L165.157 214.169ZM214.231 183.085C217.076 185.931 218.647 189.717 218.647 193.746V218.647H193.746C189.717 218.647 185.936 217.076 183.085 214.231L177.016 208.162L179.237 205.941L181.458 203.72L186.246 208.508C188.478 210.739 191.437 211.963 194.593 211.963H211.973V194.583C211.973 191.432 210.744 188.467 208.518 186.236L203.73 181.448L205.951 179.227L208.172 177.006L214.231 183.085ZM214.169 165.157L208.156 171.17L203.658 166.671L207.805 162.523V156.656H214.163V165.157H214.169ZM237.546 148.108C234.7 150.954 230.914 152.524 226.885 152.524H218.301V146.248H225.077C225.237 146.248 225.387 146.243 225.537 146.233C225.568 146.233 225.599 146.228 225.625 146.228C225.738 146.222 225.852 146.212 225.971 146.207H225.981C228.796 145.99 231.435 144.776 233.424 142.793L245.717 130.5L233.424 118.207C231.431 116.219 228.793 115.009 225.986 114.793C225.707 114.772 225.403 114.752 225.082 114.752H218.306V108.476H226.89C230.919 108.476 234.7 110.046 237.551 112.892L255.153 130.5L237.546 148.108Z" fill="black"/>
</svg>
