<svg width="20" height="20" viewBox="0 0 20 20" fill="none" xmlns="http://www.w3.org/2000/svg">
<g clip-path="url(#clip0_439_835)">
<path d="M18.3337 9.99996C18.3337 11.0943 18.1181 12.1779 17.6993 13.189C17.2805 14.2 16.6667 15.1187 15.8929 15.8925C15.1191 16.6663 14.2004 17.2802 13.1894 17.699C12.1783 18.1177 11.0947 18.3333 10.0003 18.3333C8.90598 18.3333 7.82234 18.1177 6.8113 17.699C5.80025 17.2802 4.88159 16.6663 4.10777 15.8925C3.33395 15.1187 2.72012 14.2 2.30133 13.189C1.88254 12.1779 1.66699 11.0943 1.66699 9.99996C1.66699 8.90561 1.88254 7.82198 2.30133 6.81093C2.72012 5.79988 3.33395 4.88122 4.10777 4.1074C4.88159 3.33358 5.80025 2.71975 6.8113 2.30096C7.82234 1.88217 8.90598 1.66663 10.0003 1.66663C11.0947 1.66663 12.1783 1.88217 13.1894 2.30096C14.2004 2.71975 15.1191 3.33358 15.8929 4.1074C16.6667 4.88123 17.2805 5.79989 17.6993 6.81093C18.1181 7.82198 18.3337 8.90561 18.3337 9.99996L18.3337 9.99996Z" stroke="#12abcd" stroke-width="1.5"/>
<path d="M13.3337 9.99996C13.3337 11.0943 13.2474 12.1779 13.0799 13.189C12.9124 14.2 12.6669 15.1187 12.3573 15.8925C12.0478 16.6663 11.6804 17.2802 11.2759 17.699C10.8715 18.1177 10.4381 18.3333 10.0003 18.3333C9.56259 18.3333 9.12913 18.1177 8.72471 17.699C8.3203 17.2802 7.95283 16.6663 7.6433 15.8925C7.33377 15.1187 7.08824 14.2 6.92073 13.189C6.75321 12.1779 6.66699 11.0943 6.66699 9.99996C6.66699 8.90561 6.75321 7.82198 6.92073 6.81093C7.08824 5.79988 7.33377 4.88122 7.6433 4.1074C7.95283 3.33358 8.3203 2.71975 8.72471 2.30096C9.12913 1.88217 9.56259 1.66663 10.0003 1.66663C10.4381 1.66663 10.8715 1.88217 11.2759 2.30096C11.6804 2.71975 12.0478 3.33358 12.3573 4.1074C12.6669 4.88123 12.9124 5.79989 13.0799 6.81093C13.2474 7.82198 13.3337 8.90561 13.3337 9.99996L13.3337 9.99996Z" stroke="#12abcd" stroke-width="1.5"/>
<path d="M1.66699 10H18.3337" stroke="#12abcd" stroke-width="1.5" stroke-linecap="round"/>
</g>
<defs>
<clipPath id="clip0_439_835">
<rect width="20" height="20" fill="white"/>
</clipPath>
</defs>
</svg>
